<svg xmlns="http://www.w3.org/2000/svg" width="1200" height="760" viewBox="0 0 1200 760">
  <rect width="1200" height="760" fill="#111318"/>
  <rect y="0" width="1200" height="44" fill="#191c22"/>
  <rect y="43" width="1200" height="1" fill="#2b313a"/>
  <rect x="14" y="13" width="18" height="18" rx="4" fill="#2f7dd3"/>
  <path d="M20 27V15l8-2v11" stroke="#fff" stroke-width="1.5" fill="none"/>
  <text x="42" y="28" fill="#f2f4f7" font-family="Inter,Segoe UI,sans-serif" font-size="14" font-weight="600">Fast Remixer</text>
  <rect x="926" y="8" width="76" height="28" rx="5" fill="#222730" stroke="#343b46"/>
  <text x="951" y="27" fill="#e7ebf0" font-family="Inter,Segoe UI,sans-serif" font-size="12">Open</text>
  <rect x="1010" y="8" width="72" height="28" rx="5" fill="#1f242b" stroke="#343b46"/>
  <text x="1033" y="27" fill="#cbd3dd" font-family="Inter,Segoe UI,sans-serif" font-size="12">WAV</text>
  <rect x="1088" y="8" width="96" height="28" rx="5" fill="#2f7dd3"/>
  <text x="1120" y="27" fill="#fff" font-family="Inter,Segoe UI,sans-serif" font-size="12" font-weight="600">Export</text>
  <rect x="0" y="44" width="220" height="716" fill="#191c22"/>
  <rect x="979" y="44" width="221" height="716" fill="#191c22"/>
  <rect x="220" y="44" width="759" height="716" fill="#111318"/>
  <rect x="238" y="66" width="723" height="392" rx="6" fill="#151922" stroke="#2b313a"/>
  <g stroke="#526072" stroke-width="2">
    <path d="M256 275h690"/>
    <path d="M260 245c18 42 34 44 52 0s34-46 52 0 34 42 52 0 34-48 52 0 34 46 52 0 34-40 52 0 34 45 52 0 34-43 52 0 34 38 52 0 34-47 52 0 34 45 52 0 34-41 52 0 34 35 52 0"/>
  </g>
  <rect x="238" y="458" width="723" height="56" fill="#191c22" stroke="#2b313a"/>
  <circle cx="303" cy="486" r="18" fill="#2f7dd3"/>
  <rect x="238" y="514" width="723" height="104" fill="#191c22" stroke="#2b313a"/>
  <rect x="326" y="548" width="480" height="5" rx="2.5" fill="#303742"/>
  <rect x="326" y="548" width="210" height="5" rx="2.5" fill="#2f7dd3"/>
  <circle cx="536" cy="550.5" r="7" fill="#e7ebf0"/>
  <rect x="326" y="580" width="480" height="5" rx="2.5" fill="#303742"/>
  <rect x="326" y="580" width="240" height="5" rx="2.5" fill="#2f7dd3"/>
  <circle cx="566" cy="582.5" r="7" fill="#e7ebf0"/>
</svg>
